<?xml version="1.0" encoding="UTF-8" standalone="no"?>
<svg viewBox="0 0 316.15811 391.82513" xmlns="http://www.w3.org/2000/svg" xmlns:inkscape="http://www.inkscape.org/namespaces/inkscape">
<defs>
<inkscape:path-effect/>
<inkscape:path-effect/>
<inkscape:path-effect/>
<inkscape:path-effect/>
<inkscape:path-effect/>
<inkscape:path-effect/>
<inkscape:path-effect/>
<inkscape:path-effect/>
<inkscape:path-effect/>
<inkscape:path-effect/>
<inkscape:path-effect/>
<inkscape:path-effect/>
<inkscape:path-effect/>
<inkscape:path-effect/>
<inkscape:path-effect/>
<inkscape:path-effect/>
<inkscape:path-effect/>
<inkscape:path-effect/>
<inkscape:path-effect/>
<inkscape:path-effect/>
<inkscape:path-effect/>
<inkscape:path-effect/>
<inkscape:path-effect/>
</defs>
<g transform="translate(-106.81584,-440.74448)">
<path d="m404.75385,761.9148-11.13533-6.91904c2.30873-1.88002 4.29266-4.15785 5.83794-6.70281 2.32765-3.83344 3.64486-8.27436 3.78384-12.75698l-4.4325,1.0811-.54055-7.24336-1.29731-.97299-1.51355-5.72982-5.5136,2.81086-4.10818,6.81092-6.70282-9.62178-2.27031,1.51353-2.16219-5.18928c-.2706.63078-.7571,1.16658-1.35892,1.49661s-1.31515.4522-1.9925.34126c-.74851-.1226-1.44661-.53088-1.92043-1.12316s-.7189-1.36297-.6742-2.12013c-.92147.5226-1.96861.82178-3.02708.86488-.99702.0406-2.00261-.14563-2.91897-.54056 .46436.67263.73569,1.47695.77366,2.29341s-.15752,1.6425-.55743,2.35533c-.34004.6061-.82614,1.1296-1.40544,1.51353l2.27031,4.64873-3.2433,1.18921 3.56762,5.29739-2.59463,1.0811 8.21636,8.10824-8.00014-.86488-4.75683,3.35141 2.37841,4.43251 4.86495,3.45952v1.72976l5.72982,1.72975-1.72975,4.00007 4.54061.54056 2.05409.75677c3.32925-.42349 6.60566-1.2608 9.72989-2.48654 2.69096-1.05575 5.26894-2.3992 7.67582-4.00007-5.85924-5.72625-11.1869-11.99621-15.89216-18.70302-3.57724-5.09895-6.7951-10.44998-9.62179-16.00027 4.51963,7.5554 9.6283,14.75833 15.26436,21.5219 3.34423,4.01325 6.87387,7.87197 10.57391,11.55975" stroke="#000" stroke-width=".15135"/>
<path d="m355.60989,571.41421-11.13533-6.91904c2.30873-1.88002 4.29266-4.15785 5.83794-6.70281 2.32765-3.83344 3.64486-8.27436 3.78384-12.75698l-4.4325,1.0811-.54055-7.24336-1.29731-.97299-1.51355-5.72982-5.5136,2.81086-4.10818,6.81092-6.70282-9.62178-2.27031,1.51353-2.16219-5.18928c-.2706.63078-.7571,1.16658-1.35892,1.49661s-1.31515.4522-1.9925.34126c-.74851-.1226-1.44661-.53088-1.92043-1.12316s-.7189-1.36297-.6742-2.12013c-.92147.5226-1.96861.82178-3.02708.86488-.99702.0406-2.00261-.14563-2.91897-.54056 .46436.67263.73569,1.47695.77366,2.29341s-.15752,1.6425-.55743,2.35533c-.34004.6061-.82614,1.1296-1.40544,1.51353l2.27031,4.64873-3.2433,1.18921 3.56762,5.29739-2.59463,1.0811 8.21636,8.10824-8.00014-.86488-4.75683,3.35141 2.37841,4.43251 4.86495,3.45952v1.72976l5.72982,1.72975-1.72975,4.00007 4.54061.54056 2.05409.75677c3.32925-.42349 6.60566-1.2608 9.72989-2.48654 2.69096-1.05575 5.26894-2.3992 7.67582-4.00007-5.85924-5.72625-11.1869-11.99621-15.89216-18.70302-3.57724-5.09895-6.7951-10.44998-9.62179-16.00027 4.51963,7.5554 9.6283,14.75833 15.26436,21.5219 3.34423,4.01325 6.87387,7.87197 10.57391,11.55975" stroke="#000" stroke-width=".15135"/>
<path d="m274.86622,811.95646 9.41042,3.38288c4.26744-12.70714 6.72295-25.96989 7.29564-39.28226 .68738-14.64616-1.1409-29.8577-7.65017-43.31811-3.27377-6.72748-7.75952-12.90422-13.3691-17.90084s-12.37618-8.73419-19.67354-10.54365c-9.60231-2.38158-20.05808-1.17457-28.54781,3.74966h-1e-005c-8.49858,4.94349-14.66427,13.6941-15.95695,23.29834-1.10849,8.3835 1.58134,17.08004 7.07828,23.29249s13.69899,9.81311 21.83273,9.72721c-8.12973-.26953-16.00195-4.22028-21.01938-10.4168-5.02108-6.19342-7.15489-14.58688-5.78389-22.27778 1.54949-8.8214 7.67675-16.58369 15.47781-20.69028 7.8172-4.12989 17.32062-4.71859 25.7317-2.26172 6.42667,1.87685 12.30607,5.50871 17.11715,10.16453 4.81628,4.66034 8.57374,10.39333 11.26714,16.56346l1e-005,1e-005c5.42439,12.33334 6.34417,26.36493 5.20861,40.08082-1.08605,12.49505-3.93771,24.8032-8.41864,36.43204z" fill-rule="evenodd"/>
<path d="m278.86339,813.96947 9.9875.4997c.75548-22.23015 6.85955-44.39168 17.70698-64.00458 11.86361-21.53883 29.3756-39.86668 48.36186-56.26062 6.28737-5.39095 12.65622-10.56194 19.85937-13.97569 7.18216-3.38117 15.34109-5.1368 22.88274-3.35094 5.50794,1.2582 10.64054,4.36413 14.49582,8.62082s6.46648,9.70003 7.54218,15.43024v2e-005c1.07772,5.7332.62718,11.77884-1.15079,17.40991s-4.88802,10.86483-8.90421,15.27894l-1e-005,1e-005c-4.86429,5.3252-11.19217,9.53586-18.28331,10.88558-3.54522.6785-7.24989.64266-10.76135-.25062s-6.83035-2.65036-9.45949-5.17501c-3.09541-2.97067-5.19717-7.00134-5.85497-11.28648 .52574,4.30334 2.50836,8.44141 5.57361,11.57066 2.60406,2.65695 5.94955,4.57293 9.54757,5.60473s7.43258,1.19469 11.14123.59978h2e-005c7.41388-1.19664 14.1594-5.33633 19.37843-10.74454l1e-005-1e-005c4.3195-4.45901 7.74802-9.83348 9.82336-15.74867s2.76108-12.36189 1.79055-18.62914l-1e-005-1e-005c-.97246-6.2697-3.63378-12.31297-7.7922-17.21358s-9.8161-8.57412-16.1244-10.24009c-8.65095-2.22134-17.8499-.66831-25.83318,2.898-7.96654,3.53568-14.9054,8.75605-21.42469,14.06108l-2e-005,1e-005c-19.79524,15.99591-38.35423,34.30945-51.63814,56.59652-12.0856,20.35369-19.31742,43.63293-20.86446,67.42398z" fill-rule="evenodd"/>
<path d="m286.00108,773.40136 9.99784.20736c.0856-26.35195 1.2855-52.71999 3.59859-79.00946 .85431-9.65879 1.83578-19.46074 1.85932-29.39211 .0347-9.82548-.98419-19.83004-4.08021-29.33212-3.11174-9.5713-8.511-18.56036-16.24497-25.12473-7.75367-6.57979-17.97071-10.38793-28.09807-9.55515-9.61109.81303-18.74316,6.04912-23.88801,14.08178v1e-005c-2.56495,4.01896-4.11,8.66343-4.40547,13.39079-.2945,4.72829.6769,9.5117 2.82539,13.69332l1e-005,1e-005c2.89787,5.63275 7.93782,10.06628 13.80629,12.21951s12.50181,1.99982 18.19964-.36125c-5.7765,2.16145-12.33212,2.05407-17.96765-.23918s-10.3286-6.75846-12.88356-12.18826v-1e-005c-1.90086-4.03361-2.64759-8.5828-2.22021-12.985s2.02689-8.67259 4.51645-12.2919l1e-005-1e-005c4.95548-7.23074 13.58685-11.6911 22.23567-12.12861 9.15576-.48783 18.30788,3.39809 25.11176,9.53288 6.82926,6.15518 11.42608,14.59688 14.02918,23.49759v1e-005c2.58582,8.86327 3.17116,18.27822 2.84493,27.67354-.34163,9.51533-1.64702,19.06524-2.83552,28.74901-3.25106,26.39542-5.38849,52.94742-6.40141,79.56198z" fill-rule="evenodd"/>
<path d="m278.96008,804.35281 9.79412,2.01874c3.61292-18.85736 6.93022-37.76707 9.95052-56.71988 3.50329-21.92252 6.56851-43.76703 12.56456-64.77969 7.81616-27.48819 20.63772-53.56092 36.42618-77.64929 4.11493-6.25174 8.38352-12.34827 13.75316-17.26711l1e-005-1e-005c5.36461-4.89717 11.90783-8.71818 18.99995-9.61772 8.45559-1.11902 17.54002,2.13625 23.4672,8.45387l1e-005,1e-005c5.93874,6.31038 8.70255,15.64563 7.15419,24.30304v2e-005c-1.25113,7.02024-5.26009,13.58227-11.01429,17.92774-5.7186,4.36361-13.18679,6.47498-20.46683,5.73212l-2.16029-2.10675 2.12543,2.17895c7.22641.92318 14.8585-.96953 20.91487-5.24089 6.02076-4.2895 10.36953-10.92592 11.88972-18.24207l1e-005-2e-005c1.87169-9.03497-.70705-18.94577-6.91371-25.94727-6.2174-6.99334-15.87896-10.82411-25.32205-9.86723-7.86305.83497-15.11703,4.71225-20.97956,9.84589l-2e-005,1e-005c-5.85971,5.11393-10.51987,11.33171-14.83872,17.55498-16.66015,23.90869-30.44921,50.06229-39.2881,78.06499l-1e-005,2e-005c-6.73808,21.41466-10.49959,43.49938-14.57829,65.22029-3.53396,18.77482-7.36069,37.49028-11.47806,56.13726z" fill-rule="evenodd"/>
<path d="m278.15167,808.20842 9.98238.59324c3.51149-70.86133 21.23535-141.16166 51.9065-205.44748 7.85759-16.44937 16.66874-32.78712 22.54431-50.43921 5.90903-17.65942 8.57124-37.0459 3.84115-55.25953v-2e-005c-2.38093-9.10885-6.66578-17.77321-12.84238-24.90607-6.18063-7.13653-14.29835-12.64517-23.3547-15.30915s-19.02094-2.34228-27.70796,1.31063l-3e-005,1e-005c-8.69079,3.65939-15.93239,10.7351-19.37432,19.46702-1.76013,4.46752-2.51876,9.35934-1.92761,14.12914s2.58651,9.39102 5.8449,12.91765l1e-005,2e-005c2.93373,3.1694 6.85051,5.38817 11.05021,6.27692h3e-005c4.19989.88788 8.65409.4397 12.57191-1.24998s7.27632-4.61219 9.48522-8.23208 3.25723-7.92104 2.97157-12.12592c.20371,4.20965-.92955,8.46337-3.18053,11.99562s-5.61342,6.33463-9.46697,7.90829-8.19209,1.91787-12.22144.98278c-4.02955-.93422-7.74871-3.14668-10.4807-6.21775l-2e-005-2e-005c-3.04174-3.41261-4.84418-7.86069-5.32358-12.39943s.34554-9.18775 2.09804-13.41088c3.42192-8.25002 10.48449-14.83277 18.7385-18.1284 8.26198-3.30384 17.69824-3.39034 26.16674-.73268 8.47777,2.65785 16.02648,8.03287 21.72041,14.85207 5.69898,6.82404 9.57194,15.1094 11.67023,23.77021v1e-005c4.22742,17.32212 1.20248,35.81431-4.76714,52.82365-6.00501,17.02232-15.03137,32.94602-23.27981,49.42168-32.26436,64.3712-51.67978,135.29786-56.66492,207.40966z" fill-rule="evenodd"/>
<path d="m263.85262,604.04016 8.5465-5.19204c-1.17579-1.53767-2.03501-3.4188-2.43401-5.40739-.68079-2.90999-.10444-6.54001.32347-10.51942-.44252-4.14906-.78582-8.40975-1.02881-12.76717 2.29402,2.9963 4.11986,7.10613 4.82009,11.56907 1.3983,5.50953.40992,11.85376-2.92353,16.94301 4.06708-4.52451 6.27021-10.94639 5.66277-17.40219-.87032-4.90619-3.72799-9.62298-8.31189-13.17967-1.23431,4.44703-2.92596,8.95059-5.06943,13.49681-1.07344,3.69548-2.28303,7.84092-2.20191,12.71408 .12404,3.3544 1.00518,6.69436 2.61675,9.74491z" fill-rule="evenodd"/>
<path d="m223.93786,627.08663c-.95978-2.03922-2.53952-3.85143-4.54984-5.11949s-4.43092-1.97797-6.93082-1.96561c-3.23476.0208-6.51843,1.25915-9.06802,3.5751-2.4826,2.52724-4.10063,6.10356-4.3627,10.10352 .90529,1.68231 2.17003,3.18768 3.71322,4.39484 1.45529.88295 3.09205,1.41185 4.78192,1.54833 1.68589.125 3.31778-.0733 4.80512-.51713 1.48352-.44357 2.75554-.99382 3.82959-1.4796l7.17928-3.13871-4.85642-8.74158-6.45778,4.43743c-.94356.63511-1.70655,1.1961-2.39087,1.54478s-1.34928.61987-1.97092.70061c-.6176.0922-1.28401.0589-1.86994-.13504-.49805.13021-1.00471.0487-1.38716-.18421-.12549-1.79593.59338-3.9432 2.06979-5.65119 1.40943-1.91927 3.679-3.39796 6.21777-3.90369 1.96884-.39521 4.12965-.2214 6.11447.55371 1.98532.77415 3.80586,2.15654 5.13331,3.97793z" fill-rule="evenodd"/>
<path d="m285.94044,500.64789c-1.65242-3.11054-2.36061-6.63357-2.08852-9.99652 .25966-3.22428 1.41712-6.31451 3.23399-8.82487 1.75199-2.48865 4.14835-4.41425 6.75478-5.51797 1.62196-.18357 3.27434.15454 4.61164.91176 1.45251.71149 2.68309,1.86176 3.45734,3.17705 .77888,1.31187 1.15725,2.86288 1.08694,4.29584v1e-005c-.0637,1.43255-.56855,2.85413-1.36101,3.93867-.74103,1.02543-1.78523,1.84601-2.88051,2.29881-1.09207.45843-2.33356.606-3.4245.4326l-.20886,9.99782c2.94004-.0892 5.74851-.972 8.15707-2.51393 2.40535-1.54756 4.30499-3.69308 5.5379-6.18324 1.30579-2.65246 1.79475-5.58131 1.46359-8.42616v-1e-005c-.33776-2.84444-1.48738-5.48619-3.25592-7.62083s-4.10252-3.67185-6.6607-4.47103c-2.67339-.75345-5.47156-.74169-8.03776-.0158h-1e-005c-3.36241,2.01697-6.0619,4.8661-7.81197,8.13084-1.6852,3.24302-2.42843,6.87239-2.19925,10.38346 .24029,3.66273 1.5395,7.16561 3.62576,10.00348z" fill-rule="evenodd"/>
<path d="m294.57143,624.21932c1.01842-4.31769 3.09283-8.28833 5.90229-11.47969 3.05141-3.80782 6.85751-6.65514 10.62989-8.20419 .79444,2.34214.49898,4.99929-.83644,7.18091-.65954,2.41593-2.21161,4.56766-4.11606,5.87587-2.095,1.46186-4.82161,2.03974-7.10032,1.63086l-.38728,9.9925c4.96651-.12807 9.56653-2.16685 12.89966-5.51202 2.9829-3.01991 4.75989-6.92837 5.13177-10.95876-.30401-4.26469-1.87148-8.40392-4.36997-11.69874-5.86138,2.17327-10.59083,5.85314-13.65583,10.36725-2.42632,3.93238-3.81771,8.37869-4.09771,12.80601z" fill-rule="evenodd"/>
<path d="m264.51007,711.13632 5.837-8.1197c-2.62497-1.23174-4.98485-3.9191-5.91883-7.11422-.54915-2.01436-.69042-4.23736.0865-6.11713 .37331-.94757.94282-1.84951 1.70211-2.55573 .75486-.70456 1.71385-1.25873 2.76216-1.50005 1.61402-.39069 3.58712-.009 5.08685,1.13829 1.50477,1.14263 2.56594,3.09143 2.64846,5.20869 .42087-2.07664-.10674-4.44746-1.57714-6.28-1.47545-1.82751-3.82197-3.03497-6.40185-3.0873-1.64232-.0242-3.29726.3976-4.7728,1.21354-1.47121.81436-2.75192,1.96862-3.74149,3.35125-1.9483,2.77962-2.8176,6.21244-2.64925,9.548 .20379,5.2884 2.61325,10.54994 6.93831,14.31436z" fill-rule="evenodd"/>
<path d="m322.56356,718.21222 1.73002,3.15706c8.55688-4.94805 14.89883-13.31227 17.36973-22.69315 1.23371-4.60874 1.49427-9.64161-.11834-14.19964-.81326-2.27904-2.11211-4.39334-3.85375-6.07267s-3.93828-2.89317-6.2996-3.37049c-3.50683-.70177-7.2578.32344-9.8811,2.63599s-4.04693,5.85556-3.79623,9.26429c-.0897-3.41676 1.50169-6.80725 4.10764-8.89449 2.60408-2.08947 6.19671-2.85764 9.35787-2.06237l1e-005,1e-005c2.13956.53317 4.08577,1.74757 5.59415,3.33872s2.59,3.57484 3.23438,5.67275c1.30229,4.19478.78683,8.80255-.52879,13.06-2.71561,8.65701-9.01342,16.0925-16.91599,20.16399z" fill-rule="evenodd"/>
<path d="m356.74268,590.2132 2.58586,1.52096c3.84438-6.91466 9.5835-12.82331 16.36999-17.11587s14.66296-6.98892 22.75884-7.51347c5.40251-.35077 10.88506.20332 16.14678,1.6455-5.1901-1.68179-10.68138-2.49942-16.17808-2.3951-8.24574.15779-16.45552,2.52971-23.69228,6.65516-7.23856,4.12246-13.54323,10.01951-17.99111,17.20282z" fill-rule="evenodd"/>
<path d="m149.50258,326.0625c0,4.46313-3.61809,8.08122-8.08122,8.08122s-8.08122-3.61809-8.08122-8.08122 3.61808-8.08122 8.08122-8.08122 8.08122,3.61809 8.08122,8.08122z" fill="#f00" transform="translate(82,326)"/>
<path d="m149.50258,326.0625c0,4.46313-3.61809,8.08122-8.08122,8.08122s-8.08122-3.61809-8.08122-8.08122 3.61808-8.08122 8.08122-8.08122 8.08122,3.61809 8.08122,8.08122z" fill="#f00" transform="translate(95.39594,335.11678)"/>
<path d="m149.50258,326.0625c0,4.46313-3.61809,8.08122-8.08122,8.08122s-8.08122-3.61809-8.08122-8.08122 3.61808-8.08122 8.08122-8.08122 8.08122,3.61809 8.08122,8.08122z" fill="#f00" transform="translate(80.24366,341.1777)"/>
<path d="m149.50258,326.0625c0,4.46313-3.61809,8.08122-8.08122,8.08122s-8.08122-3.61809-8.08122-8.08122 3.61808-8.08122 8.08122-8.08122 8.08122,3.61809 8.08122,8.08122z" fill="#f00" transform="translate(93.37564,351.27922)"/>
<path d="m149.50258,326.0625c0,4.46313-3.61809,8.08122-8.08122,8.08122s-8.08122-3.61809-8.08122-8.08122 3.61808-8.08122 8.08122-8.08122 8.08122,3.61809 8.08122,8.08122z" fill="#f00" transform="translate(108.52793,344.20816)"/>
<path d="m149.50258,326.0625c0,4.46313-3.61809,8.08122-8.08122,8.08122s-8.08122-3.61809-8.08122-8.08122 3.61808-8.08122 8.08122-8.08122 8.08122,3.61809 8.08122,8.08122z" fill="#f00" transform="translate(77.21321,357.34014)"/>
<path d="m149.50258,326.0625c0,4.46313-3.61809,8.08122-8.08122,8.08122s-8.08122-3.61809-8.08122-8.08122 3.61808-8.08122 8.08122-8.08122 8.08122,3.61809 8.08122,8.08122z" fill="#f00" transform="matrix(.92247,-.38606,.38606,.92247,113.90553,503.72852)"/>
<path d="m149.50258,326.0625c0,4.46313-3.61809,8.08122-8.08122,8.08122s-8.08122-3.61809-8.08122-8.08122 3.61808-8.08122 8.08122-8.08122 8.08122,3.61809 8.08122,8.08122z" fill="#f00" transform="matrix(.92247,-.38606,.38606,.92247,129.78256,506.96689)"/>
<path d="m149.50258,326.0625c0,4.46313-3.61809,8.08122-8.08122,8.08122s-8.08122-3.61809-8.08122-8.08122 3.61808-8.08122 8.08122-8.08122 8.08122,3.61809 8.08122,8.08122z" fill="#f00" transform="matrix(.92247,-.38606,.38606,.92247,118.14485,518.4076)"/>
<path d="m149.50258,326.0625c0,4.46313-3.61809,8.08122-8.08122,8.08122s-8.08122-3.61809-8.08122-8.08122 3.61808-8.08122 8.08122-8.08122 8.08122,3.61809 8.08122,8.08122z" fill="#f00" transform="matrix(.92247,-.38606,.38606,.92247,134.15854,522.65627)"/>
<path d="m149.50258,326.0625c0,4.46313-3.61809,8.08122-8.08122,8.08122s-8.08122-3.61809-8.08122-8.08122 3.61808-8.08122 8.08122-8.08122 8.08122,3.61809 8.08122,8.08122z" fill="#f00" transform="matrix(.92247,-.38606,.38606,.92247,145.40629,510.28372)"/>
<path d="m149.50258,326.0625c0,4.46313-3.61809,8.08122-8.08122,8.08122s-8.08122-3.61809-8.08122-8.08122 3.61808-8.08122 8.08122-8.08122 8.08122,3.61809 8.08122,8.08122z" fill="#f00" transform="matrix(.92247,-.38606,.38606,.92247,121.58899,534.48697)"/>
<path d="m149.50258,326.0625c0,4.46313-3.61809,8.08122-8.08122,8.08122s-8.08122-3.61809-8.08122-8.08122 3.61808-8.08122 8.08122-8.08122 8.08122,3.61809 8.08122,8.08122z" fill="#f00" transform="matrix(.92247,-.38606,.38606,.92247,71.53679,317.74901)"/>
<path d="m149.50258,326.0625c0,4.46313-3.61809,8.08122-8.08122,8.08122s-8.08122-3.61809-8.08122-8.08122 3.61808-8.08122 8.08122-8.08122 8.08122,3.61809 8.08122,8.08122z" fill="#f00" transform="matrix(.92247,-.38606,.38606,.92247,87.41382,320.98738)"/>
<path d="m149.50258,326.0625c0,4.46313-3.61809,8.08122-8.08122,8.08122s-8.08122-3.61809-8.08122-8.08122 3.61808-8.08122 8.08122-8.08122 8.08122,3.61809 8.08122,8.08122z" fill="#f00" transform="matrix(.92247,-.38606,.38606,.92247,75.77611,332.42809)"/>
<path d="m241.09493,606.17914-8.82314-4.84025c1.69145-1.53709 3.11737-3.36559 4.19597-5.3806 1.62468-3.03519 2.4496-6.49398 2.36965-9.93572l-3.35257,1.01307-.71567-5.52959-1.03487-.69183-1.39851-4.32898-4.10927,2.3839-2.86561,5.39152-5.53802-7.09631-1.67725,1.25458-1.8732-3.88767c-.18117.49476-.53179.92569-.97936,1.20369s-.98926.40133-1.51307.34447c-.57884-.0628-1.13092-.34675-1.51874-.78102s-.60774-1.01482-.60498-1.59705c-.68457.43891-1.47477.71179-2.2843.78886-.76253.0726-1.54106-.0283-2.25989-.29291 .38391.49626.62534,1.10149.68841,1.72574s-.0524,1.26553-.32929,1.82856c-.23543.47873-.58625.90021-1.01431,1.2186l1.9336,3.46883-2.43654,1.04645 2.95498,3.91208-1.94383.93661 6.6352,5.87321-6.16814-.33013-3.50672,2.76677 2.00746,3.29859 3.87294,2.44937 .0716,1.32589 4.4639,1.0875-1.15946,3.13803 3.50289.22545 1.60596.49462c2.53428-.46311 5.01083-1.24121 7.35458-2.31072 2.01872-.92118 3.93886-2.05819 5.71716-3.38539-4.72936-4.14546-9.07388-8.72979-12.9595-13.67486-2.9541-3.75956-5.64321-7.72729-8.04078-11.86403 3.77863,5.60324 7.9941,10.91181 12.59555,15.86166 2.73032,2.93705 5.59634,5.74795 8.58586,8.42073" stroke="#000" stroke-width=".11618"/>
<path d="m228.37187,620.87604-.74684-1.85532c-3.27165,1.35733-5.78166,4.2695-6.64631,7.67227-.85358,3.40565-.0179,7.12965 2.17947,9.82798 2.20538,2.69191 5.66789,4.22964 9.11324,4.07484 3.44502-.16387 6.7194-2.01339 8.63121-4.84646 .49436-.71022.91048-1.56527.99424-2.53645 .0367-.48853-.0363-.99555-.23862-1.46997h-1e-005c-.20389-.47742-.55387-.89592-1.0181-1.17797-.43748-.25665-.9362-.3662-1.42464-.32936s-.94556.20564-1.33409.47171c-.77029.54083-1.23668,1.37953-1.37973,2.24772-.14297.85891-.0287,1.71052.21118,2.48511h1e-005c.23585.7734.56934,1.48088.88147,2.16499 .8712,1.93686 1.7156,4.01229 3.21061,5.68044 .75081.8338 1.67473,1.53788 2.73823,1.96019 1.06633.42371 2.27383.52876 3.39159.20214h1e-005c.65257-.19171 1.26589-.53974 1.7493-1.03493s.81774-1.14422.90925-1.84211-.0848-1.43181-.51377-2.00315-1.11707-.93978-1.84061-.95503c-.58661-.006-1.15323.21792-1.58339.59663s-.71698.88912-.8416,1.43379v1e-005c-.12406.54359-.093,1.10953.062,1.63292v1e-005c.15483.52269.42441,1.00116.76449,1.41339 .79695.96162 1.94108,1.56317 3.12494,1.85088s2.40029.29668 3.59053.22064c.62328-.0387 1.25357-.1016 1.86969-.2547l1e-005-1e-005c.61659-.15288 1.2179-.40303 1.73404-.78458s.93808-.90157 1.16626-1.50481 .24887-1.28519.0366-1.89331-.65874-1.12661-1.22332-1.42743-1.23286-.37838-1.85261-.24941-1.1825.4543-1.64956.87089-.84217.91904-1.20939,1.41932l-1.28497,1.74987 1.31869-1.72461c.37691-.49273.75977-.98563 1.22717-1.38564s1.02254-.70616 1.62026-.81761 1.23389-.0238 1.75843.26937 .93281.78895 1.11859,1.35527v1e-005c.18675.56643.15251,1.20016-.0676,1.75284s-.62387,1.02835-1.11078,1.37587-1.0603.57109-1.6505.70708-1.20269.18373-1.8186.21093c-1.17629.0498-2.35963.0211-3.47382-.27763s-2.16783-.87582-2.85905-1.75787c-.29651-.37643-.52745-.803-.64992-1.25517s-.14074-.93132-.0281-1.37316l1e-005-1e-005c.11205-.44065.35282-.85137.69212-1.13474s.77941-.44957 1.20569-.43207c.52304.0138 1.04217.31346 1.35439.74061v1e-005c.31649.42888.43708,1.00637.3599,1.54178s-.35876,1.05073-.75085,1.4419-.909.66748-1.45596.81995v1e-005c-.93734.26305-1.9759.14268-2.89177-.23489s-1.72582-1.02793-2.39549-1.79265c-1.34606-1.52902-2.09458-3.53361-2.95361-5.50827-.30068-.70126-.60596-1.37452-.79455-2.0553v-1e-005c-.18454-.6795-.27489-1.37329-.14367-2.00412 .13101-.62081.45824-1.21488.94666-1.51541 .24111-.1548.51888-.25295.78823-.2642s.54191.0515.75245.18671c.23023.13789.41608.38106.53028.65026 .11578.27231.14953.59377.124.91452-.0407.64732-.40084,1.29196-.82517,1.92003-1.72125,2.45935-4.68225,4.04218-7.65221,4.11695h-1e-005c-2.96962.0838-5.98026-1.338-7.79112-3.65395v-1e-005c-1.81887-2.30954-2.4665-5.54691-1.69411-8.35134 .76132-2.80732 2.95577-5.23639 5.63918-6.27618z" fill-rule="evenodd"/>
<path d="m339.08589,565.46647-.74684,1.85532c2.68341,1.03979 4.87786,3.46886 5.63918,6.27618 .77239,2.80443.12476,6.0418-1.69411,8.35134v1e-005c-1.81086,2.31595-4.8215,3.7378-7.79113,3.65395-2.96996-.0748-5.93096-1.6576-7.65221-4.11695-.42433-.62807-.78451-1.27271-.82517-1.92003-.0255-.32075.008-.64221.124-.91452 .1142-.2692.30005-.51237.53028-.65026 .21054-.13521.48517-.1986.75245-.18671s.54712.1094.78823.2642c.48842.30053.81565.8946.94666,1.51541 .13122.63083.0409,1.32462-.14367,2.00412v1e-005c-.18859.68078-.49387,1.35404-.79455,2.0553-.85903,1.97466-1.60755,3.97925-2.95361,5.50827-.66967.76472-1.47638,1.41352-2.39549,1.79265s-1.95443.49794-2.89177.23489v-1e-005c-.54696-.15247-1.06263-.42708-1.45596-.81995s-.67439-.90339-.75085-1.4419 .0434-1.1129.3599-1.54178v-1e-005c.31222-.42715.83135-.72684 1.35439-.74061 .42628-.0175.86839.14934 1.20569.43207s.58007.69409.69213,1.13475 .0941.92176-.0281,1.37316-.35341.87874-.64992,1.25517c-.69122.88205-1.74744,1.45859-2.85905,1.75787s-2.29753.32742-3.47382.27763c-.61591-.0272-1.22788-.0752-1.8186-.21093h-1e-005c-.59019-.13599-1.16295-.35897-1.65049-.70708s-.89086-.82214-1.11078-1.37587-.25439-1.18641-.0676-1.75284 .5939-1.06294 1.11859-1.35528 1.16136-.38112 1.75843-.26937 1.15306.41783 1.62026.81761 .85026.89291 1.22717,1.38564l1.31869,1.72461-1.28497-1.74987c-.36722-.50028-.74238-1.00283-1.20939-1.41932s-1.03017-.74156-1.64956-.87089-1.28778-.0506-1.85261.24941-1.01017.81936-1.22332,1.42743-.19121,1.28927.0367,1.89331 .64963,1.12277 1.16626,1.50481 1.11745.6317 1.73404.78458l1e-005,1e-005c.61612.1531 1.24641.21601 1.86969.2547 1.19024.076 2.40872.0677 3.59053-.22064s2.32799-.88926 3.12494-1.85088c.34008-.41223.60966-.8907.76449-1.41339v-1e-005c.15502-.52339.18609-1.08933.062-1.63292s-.41329-1.05561-.8416-1.4338-.99678-.60271-1.58339-.59663c-.72354.0152-1.4077.38239-1.84061.95503s-.60453,1.30247-.51377,2.00315 .42472,1.34533.90925,1.84211 1.09673.84322 1.7493,1.03493h1e-005c1.11776.32662 2.32526.22157 3.39159-.20214 1.0635-.42231 1.98742-1.12639 2.73823-1.96019 1.49501-1.66815 2.33941-3.74358 3.21061-5.68044 .31213-.68411.64562-1.39159.88147-2.16499s.35416-1.6262.21119-2.48511c-.14305-.86819-.60944-1.70689-1.37973-2.24772-.38853-.26607-.84765-.43424-1.33409-.47171s-.98716.0727-1.42464.32936c-.46423.28205-.81421.70055-1.0181,1.17797h-1e-005c-.20236.47442-.27529.98144-.23862,1.46997 .0838.97118.49988,1.82623.99424,2.53645 1.91181,2.83307 5.18619,4.68259 8.63121,4.84646 3.44535.1548 6.90786-1.38293 9.11324-4.07484 2.19738-2.69833 3.03305-6.42233 2.17947-9.82798-.86465-3.40277-3.37466-6.31494-6.64631-7.67227z" fill-rule="evenodd"/>
<path d="m321.064,674.17877 9.36344-9.17578c1.27857,2.68886 3.02066,5.15657 5.12632,7.26155 3.17173,3.1707 7.17332,5.50395 11.49497,6.70251l.001-4.56244 7.16479,1.19343 1.253-1.02942 5.92532-.11088-1.42245-6.02306-5.64174-5.60683 10.93734-4.22859-.93166-2.56457 5.55411-.86926c-.54857-.41253-.95364-1.01226-1.13146-1.6752s-.12726-1.38488.14122-2.01657c.29669-.69805.85894-1.27934 1.54672-1.59911s1.49462-.375 2.21956-.15193c-.28906-1.01915-.33125-2.10739-.12199-3.14586 .19712-.97818.61661-1.91088 1.21769-2.70737-.7636.29151-1.60932.36427-2.41149.20745s-1.55822-.54272-2.15582-1.10034c-.50812-.47413-.90133-1.07056-1.13686-1.72441l-5.05464,1.10253-.38576-3.43284-5.99258,2.20891-.43463-2.77705-9.82613,6.05799 2.73829-7.5665-2.12711-5.41616-4.87024,1.25885-4.515,3.90524-1.68037-.4104-3.03981,5.15581-3.47545-2.62941-1.60243,4.2827-1.22251,1.8159c-.37849,3.33467-.34245,6.71617.10704,10.04201 .38715,2.86461 1.08059,5.68773 2.06469,8.40571 6.95291-4.33334 14.30787-8.02127 21.93954-11.00093 5.80209-2.26533 11.76379-4.12172 17.82626-5.55085-8.41198,2.598-16.62132,5.85183-24.52897,9.72225-4.6921,2.29656-9.27809,4.80991-13.73844,7.52934" stroke="#000" stroke-width=".15135"/>
<path d="m301.89275,460.96913-5.47738-3.00481c1.05005-.95422 1.93526-2.08936 2.60485-3.34027 1.0086-1.88424 1.5207-4.03145 1.47107-6.16808l-2.08127.62892-.44429-3.43276-.64244-.42949-.86819-2.68742-2.55103,1.47992-1.77896,3.34704-3.438-4.40537-1.04123.77884-1.16288-2.41346c-.11247.30714-.33013.57467-.60798.74725s-.61413.24915-.93931.21385c-.35934-.039-.70208-.21526-.94284-.48486s-.37729-.63-.37557-.99145c-.42498.27247-.91553.44189-1.41808.48973-.47338.0451-.95669-.0176-1.40294-.18184 .23833.30808.38821.6838.42736,1.07133s-.0325.78564-.20442,1.13517c-.14615.2972-.36394.55885-.62968.75651l1.20037,2.15344-1.5126.64963 1.83445,2.42861-1.20673.58145 4.11912,3.64608-3.82917-.20495-2.17696,1.71761 1.24623,2.04776 2.40431,1.52056 .0444.82311 2.77118.67512-.71979,1.94808 2.17459.13996 .99697.30706c1.57327-.2875 3.11071-.77054 4.56571-1.43449 1.25321-.57187 2.44524-1.27772 3.5492-2.10164-2.93598-2.5735-5.63305-5.41944-8.04523-8.48933-1.8339-2.33393-3.50329-4.79709-4.9917-7.36517 2.34576,3.47848 4.96272,6.77403 7.81929,9.84689 1.69498,1.82332 3.4742,3.56832 5.33009,5.22757" stroke="#000" stroke-width=".07213"/>
<path d="m391.9348,671.51968 5.47738-3.00481c-1.05005-.95422-1.93526-2.08936-2.60485-3.34027-1.0086-1.88424-1.5207-4.03145-1.47107-6.16808l2.08127.62892 .44429-3.43276 .64244-.42949 .86819-2.68742 2.55103,1.47992 1.77896,3.34704 3.438-4.40537 1.04123.77884 1.16288-2.41346c.11247.30714.33013.57467.60798.74725s.61413.24915.93931.21385c.35934-.039.70208-.21526.94284-.48486s.37729-.63.37557-.99145c.42498.27247.91553.44189 1.41808.48973 .47338.0451.95669-.0176 1.40294-.18184-.23833.30808-.38821.6838-.42736,1.07133s.0325.78564.20442,1.13517c.14615.2972.36394.55885.62968.75651l-1.20037,2.15344 1.5126.64963-1.83445,2.42861 1.20673.58145-4.11912,3.64608 3.82917-.20495 2.17696,1.71761-1.24623,2.04776-2.40431,1.52056-.0444.82311-2.77118.67512 .71979,1.94808-2.17459.13996-.99697.30706c-1.57327-.2875-3.11071-.77054-4.56571-1.43449-1.25321-.57187-2.44524-1.27772-3.5492-2.10164 2.93598-2.5735 5.63305-5.41944 8.04523-8.48933 1.8339-2.33393 3.50329-4.79709 4.9917-7.36517-2.34576,3.47848-4.96272,6.77403-7.81929,9.84689-1.69498,1.82332-3.4742,3.56832-5.33009,5.22757" stroke="#000" stroke-width=".07213"/>
<path d="m277.64909,613.48355-5.47738,3.00481c1.05005.95422 1.93526,2.08936 2.60485,3.34027 1.0086,1.88424 1.5207,4.03145 1.47107,6.16808l-2.08127-.62892-.44429,3.43276-.64244.42949-.86819,2.68742-2.55103-1.47992-1.77896-3.34704-3.438,4.40537-1.04123-.77884-1.16288,2.41346c-.11247-.30714-.33013-.57467-.60798-.74725s-.61413-.24915-.93931-.21385c-.35934.039-.70208.21526-.94284.48486s-.37729.63-.37557.99145c-.42498-.27247-.91553-.44189-1.41808-.48973-.47338-.0451-.95669.0176-1.40294.18184 .23833-.30808.38821-.6838.42736-1.07133s-.0325-.78564-.20442-1.13517c-.14615-.2972-.36394-.55885-.62968-.75651l1.20037-2.15344-1.5126-.64963 1.83445-2.42861-1.20673-.58145 4.11912-3.64608-3.82917.20495-2.17696-1.71761 1.24623-2.04776 2.40431-1.52056 .0444-.82311 2.77118-.67512-.71979-1.94808 2.17459-.13996 .99697-.30706c1.57327.2875 3.11071.77054 4.56571,1.43449 1.25321.57187 2.44524,1.27772 3.5492,2.10164-2.93598,2.5735-5.63305,5.41944-8.04523,8.48933-1.8339,2.33393-3.50329,4.79709-4.9917,7.36517 2.34576-3.47848 4.96272-6.77403 7.81929-9.84689 1.69498-1.82332 3.4742-3.56832 5.33009-5.22757" stroke="#000" stroke-width=".07213"/>
<path d="m339.2684,464.99112-5.47738,3.00481c1.05005.95422 1.93526,2.08936 2.60485,3.34027 1.0086,1.88424 1.5207,4.03145 1.47107,6.16808l-2.08127-.62892-.44429,3.43276-.64244.42949-.86819,2.68742-2.55103-1.47992-1.77896-3.34704-3.438,4.40537-1.04123-.77884-1.16288,2.41346c-.11247-.30714-.33013-.57467-.60798-.74725s-.61413-.24915-.93931-.21385c-.35934.039-.70208.21526-.94284.48486s-.37729.63-.37557.99145c-.42498-.27247-.91553-.44189-1.41808-.48973-.47338-.0451-.95669.0176-1.40294.18184 .23833-.30808.38821-.6838.42736-1.07133s-.0325-.78564-.20442-1.13517c-.14615-.2972-.36394-.55885-.62968-.75651l1.20037-2.15344-1.5126-.64963 1.83445-2.42861-1.20673-.58145 4.11912-3.64608-3.82917.20495-2.17696-1.71761 1.24623-2.04776 2.40431-1.52056 .0444-.82311 2.77118-.67512-.71979-1.94808 2.17459-.13996 .99697-.30706c1.57327.2875 3.11071.77054 4.56571,1.43449 1.25321.57187 2.44524,1.27772 3.5492,2.10164-2.93598,2.5735-5.63305,5.41944-8.04523,8.48933-1.8339,2.33393-3.50329,4.79709-4.9917,7.36517 2.34576-3.47848 4.96272-6.77403 7.81929-9.84689 1.69498-1.82332 3.4742-3.56832 5.33009-5.22757" stroke="#000" stroke-width=".07213"/>
<path d="m375.79267,583.17897 5.47738,3.00481c-1.05005.95422-1.93526,2.08936-2.60485,3.34027-1.0086,1.88424-1.5207,4.03145-1.47107,6.16808l2.08127-.62892 .44429,3.43276 .64244.42949 .86819,2.68742 2.55103-1.47992 1.77896-3.34704 3.438,4.40537 1.04123-.77884 1.16288,2.41346c.11247-.30714.33013-.57467.60798-.74725s.61413-.24915.93931-.21385c.35934.039.70208.21526.94284.48486s.37729.63.37557.99145c.42498-.27247.91553-.44189 1.41808-.48973 .47338-.0451.95669.0176 1.40294.18184-.23833-.30808-.38821-.6838-.42736-1.07133s.0325-.78564.20442-1.13517c.14615-.2972.36394-.55885.62968-.75651l-1.20037-2.15344 1.5126-.64963-1.83445-2.42861 1.20673-.58145-4.11912-3.64608 3.82917.20495 2.17696-1.71761-1.24623-2.04776-2.40431-1.52056-.0444-.82311-2.77118-.67512 .71979-1.94808-2.17459-.13996-.99697-.30706c-1.57327.2875-3.11071.77054-4.56571,1.43449-1.25321.57187-2.44524,1.27772-3.5492,2.10164 2.93598,2.5735 5.63305,5.41944 8.04523,8.48933 1.8339,2.33393 3.50329,4.79709 4.9917,7.36517-2.34576-3.47848-4.96272-6.77403-7.81929-9.84689-1.69498-1.82332-3.4742-3.56832-5.33009-5.22757" stroke="#000" stroke-width=".07213"/>
<path d="m245.32421,709.44803-5.47738,3.00481c1.05005.95422 1.93526,2.08936 2.60485,3.34027 1.0086,1.88424 1.5207,4.03145 1.47107,6.16808l-2.08127-.62892-.44429,3.43276-.64244.42949-.86819,2.68742-2.55103-1.47992-1.77896-3.34704-3.438,4.40537-1.04123-.77884-1.16288,2.41346c-.11247-.30714-.33013-.57467-.60798-.74725s-.61413-.24915-.93931-.21385c-.35934.039-.70208.21526-.94284.48486s-.37729.63-.37557.99145c-.42498-.27247-.91553-.44189-1.41808-.48973-.47338-.0451-.95669.0176-1.40294.18184 .23833-.30808.38821-.6838.42736-1.07133s-.0325-.78564-.20442-1.13517c-.14615-.2972-.36394-.55885-.62968-.75651l1.20037-2.15344-1.5126-.64963 1.83445-2.42861-1.20673-.58145 4.11912-3.64608-3.82917.20495-2.17696-1.71761 1.24623-2.04776 2.40431-1.52056 .0444-.82311 2.77118-.67512-.71979-1.94808 2.17459-.13996 .99697-.30706c1.57327.2875 3.11071.77054 4.56571,1.43449 1.25321.57187 2.44524,1.27772 3.5492,2.10164-2.93598,2.5735-5.63305,5.41944-8.04523,8.48933-1.8339,2.33393-3.50329,4.79709-4.9917,7.36517 2.34576-3.47848 4.96272-6.77403 7.81929-9.84689 1.69498-1.82332 3.4742-3.56832 5.33009-5.22757" stroke="#000" stroke-width=".07213"/>
<path d="m366.7013,685.20438 5.47738,3.00481c-1.05005.95422-1.93526,2.08936-2.60485,3.34027-1.0086,1.88424-1.5207,4.03145-1.47107,6.16808l2.08127-.62892 .44429,3.43276 .64244.42949 .86819,2.68742 2.55103-1.47992 1.77896-3.34704 3.438,4.40537 1.04123-.77884 1.16288,2.41346c.11247-.30714.33013-.57467.60798-.74725s.61413-.24915.93931-.21385c.35934.039.70208.21526.94284.48486s.37729.63.37557.99145c.42498-.27247.91553-.44189 1.41808-.48973 .47338-.0451.95669.0176 1.40294.18184-.23833-.30808-.38821-.6838-.42736-1.07133s.0325-.78564.20442-1.13517c.14615-.2972.36394-.55885.62968-.75651l-1.20037-2.15344 1.5126-.64963-1.83445-2.42861 1.20673-.58145-4.11912-3.64608 3.82917.20495 2.17696-1.71761-1.24623-2.04776-2.40431-1.52056-.0444-.82311-2.77118-.67512 .71979-1.94808-2.17459-.13996-.99697-.30706c-1.57327.2875-3.11071.77054-4.56571,1.43449-1.25321.57187-2.44524,1.27772-3.5492,2.10164 2.93598,2.5735 5.63305,5.41944 8.04523,8.48933 1.8339,2.33393 3.50329,4.79709 4.9917,7.36517-2.34576-3.47848-4.96272-6.77403-7.81929-9.84689-1.69498-1.82332-3.4742-3.56832-5.33009-5.22757" stroke="#000" stroke-width=".07213"/>
<path d="m366.0327,528.63716 9.36344-9.17578c1.27857,2.68886 3.02066,5.15657 5.12632,7.26155 3.17173,3.1707 7.17332,5.50395 11.49497,6.70251l.001-4.56244 7.16479,1.19343 1.253-1.02942 5.92532-.11088-1.42245-6.02306-5.64174-5.60683 10.93734-4.22859-.93166-2.56457 5.55411-.86926c-.54857-.41253-.95364-1.01226-1.13146-1.6752s-.12726-1.38488.14122-2.01657c.29669-.69805.85894-1.27934 1.54672-1.59911s1.49462-.375 2.21956-.15193c-.28906-1.01915-.33125-2.10739-.12199-3.14586 .19712-.97818.61661-1.91088 1.21769-2.70737-.7636.29151-1.60932.36427-2.41149.20745s-1.55822-.54272-2.15582-1.10034c-.50812-.47413-.90133-1.07056-1.13686-1.72441l-5.05464,1.10253-.38576-3.43284-5.99258,2.20891-.43463-2.77705-9.82613,6.05799 2.73829-7.5665-2.12711-5.41616-4.87024,1.25885-4.515,3.90524-1.68037-.4104-3.03981,5.15581-3.47545-2.62941-1.60243,4.2827-1.22251,1.8159c-.37849,3.33467-.34245,6.71617.10704,10.04201 .38715,2.86461 1.08059,5.68773 2.06469,8.40571 6.95291-4.33334 14.30787-8.02127 21.93954-11.00093 5.80209-2.26533 11.76379-4.12172 17.82626-5.55085-8.41198,2.598-16.62132,5.85183-24.52897,9.72225-4.6921,2.29656-9.27809,4.80991-13.73844,7.52934" stroke="#000" stroke-width=".15135"/>
<path d="m225.27994,761.40295 5.47738-3.00481c-1.05005-.95422-1.93526-2.08936-2.60485-3.34027-1.0086-1.88424-1.5207-4.03145-1.47107-6.16808l2.08127.62892 .44429-3.43276 .64244-.42949 .86819-2.68742 2.55103,1.47992 1.77896,3.34704 3.438-4.40537 1.04123.77884 1.16288-2.41346c.11247.30714.33013.57467.60798.74725s.61413.24915.93931.21385c.35934-.039.70208-.21526.94284-.48486s.37729-.63.37557-.99145c.42498.27247.91553.44189 1.41808.48973 .47338.0451.95669-.0176 1.40294-.18184-.23833.30808-.38821.6838-.42736,1.07133s.0325.78564.20442,1.13517c.14615.2972.36394.55885.62968.75651l-1.20037,2.15344 1.5126.64963-1.83445,2.42861 1.20673.58145-4.11912,3.64608 3.82917-.20495 2.17696,1.71761-1.24623,2.04776-2.40431,1.52056-.0444.82311-2.77118.67512 .71979,1.94808-2.17459.13996-.99697.30706c-1.57327-.2875-3.11071-.77054-4.56571-1.43449-1.25321-.57187-2.44524-1.27772-3.5492-2.10164 2.93598-2.5735 5.63305-5.41944 8.04523-8.48933 1.8339-2.33393 3.50329-4.79709 4.9917-7.36517-2.34576,3.47848-4.96272,6.77403-7.81929,9.84689-1.69498,1.82332-3.4742,3.56832-5.33009,5.22757" stroke="#000" stroke-width=".07213"/>
<path d="m288.13052,692.72978-4.14835-12.43624c-2.36413,1.80986-5.03992,3.21151-7.87384,4.12454-4.2687,1.37529-8.89401,1.62683-13.28668.72257l2.07983-4.06081-6.92058-2.20544-.64564-1.48757-5.22268-2.80095 4.01276-4.71152 7.5779-2.41686-7.80523-8.75127 1.99871-1.85746-4.54645-3.30658c.67634-.11695 1.31034-.46595 1.77093-.97484s.74483-1.17444.79398-1.85905c.0543-.75653-.18096-1.53028-.64722-2.12852s-1.15912-1.01536-1.90601-1.14745c.72203-.77517 1.25589-1.7244 1.54325-2.74403 .27068-.96043.32271-1.9818.15102-2.96476 .54662.60768 1.26609,1.05812 2.0515,1.28439s1.63426.22765 2.4204.004c.66843-.19022 1.29037-.54169 1.79817-1.01617l3.99557,3.28639 1.90887-2.87913 4.32572,4.69877 1.65329-2.27323 5.982,9.87258 1.0138-7.98263 4.36309-3.85004 3.76017,3.34141 2.23713,5.53456 1.68261.40111 .35395,5.97474 4.29214-.75505-.52706,4.54219 .25982,2.1736c-1.18395,3.1403-2.75818,6.13324-4.67497,8.88808-1.65097,2.3728-3.55559,4.56899-5.67094,6.53906-4.21151-7.02737-9.07518-13.66371-14.5081-19.79593-4.13046-4.66211-8.58947-9.03307-13.33301-13.06975 6.30142,6.14842 12.12341,12.78809 17.39571,19.8389 3.12838,4.18368 6.06347,8.5119 8.79275,12.96623" stroke="#000" stroke-width=".15135"/>
<path d="m354.708,473.31519 3.05151-5.4515c.94522,1.05816 2.07274,1.95304 3.31789,2.63329 1.87556,1.02466 4.01831,1.55509 6.15528,1.52372l-.61111-2.08657 3.43643-.41494 .43496-.63875 2.69474-.84519-1.45807-2.56358-3.33171-1.8075 4.43458-3.40023-.76991-1.04785 2.4233-1.14221c-.30617-.11509-.57182-.33503-.74203-.61435s-.24389-.61623-.20581-.9411c.0421-.359.22125-.70021.49289-.93866s.63321-.37189.99463-.36709c-.26884-.42729-.43405-.91927-.4776-1.42221-.041-.47374.0257-.95651.19382-1.40133-.31011.23569-.68709.38235-1.07494.41819s-.78534-.0392-1.13338-.21412c-.29593-.14869-.55572-.3687-.7511-.63612l-2.16362,1.18193-.63668-1.5181-2.4442,1.81364-.57112-1.21166-3.68114,4.08783 .23766-3.82728-1.69894-2.19156-2.05834,1.22869-1.54104,2.39123-.82346.0374-.69878,2.76531-1.94186-.73641-.15853,2.17331-.31557.99431c.27405,1.57567.74394,3.11718 1.39543,4.5778 .56114,1.25806 1.25678,2.45607 2.07124,3.56703 2.59849-2.91388 5.46737-5.58653 8.55776-7.9724 2.34951-1.81389 4.82685-3.46218 7.40755-4.92859-3.4984,2.31596-6.81619,4.90466-9.91334,7.73487-1.83773,1.67934-3.59787,3.44359-5.27292,5.28523" stroke="#000" stroke-width=".07213"/>
<path d="m106.81584,777.85761 6.35044,7.72476c12.54668-10.66153 28.04259-18.02561 44.37774-21.01412 16.33429-2.99369 33.57345-1.62174 49.35103,3.99615 18.69371,6.5838 35.14096,19.09272 51.7409,31.19904l1e-005,1e-005c16.56633,12.16917 34.09725,24.29673 54.24013,29.75392 16.431,4.41965 34.0354,4.01784 50.11753-1.06419s30.57749-14.82639 41.2921-27.65822c-11.10134,12.49875-25.78832,21.6838-41.73139,26.1914s-33.12121,4.33565-48.8383-.41391c-19.31045-5.79561-35.929-18.19652-52.10205-30.75231l-2e-005-1e-005c-16.14009-12.61914-32.59439-25.86129-52.33045-33.64451h-2e-005c-16.73213-6.53592-35.22137-8.61551-53.12214-5.90325-17.89991,2.71742-35.08165,10.20608-49.34551,21.58524z" fill-rule="evenodd"/>
</g>
</svg>
